# xmcd
#
# Track frame offsets:
#	150
#	11875
#	22270
#	27865
#	38762
#	50255
#	62057
#	73855
#	84987
#	96410
#	107847
#	118582
#	131087
#	142765
#	153260
#	162705
#	173095
#	181255
#	193587
#	203277
#	213702
#	221585
#	232102
#	244672
#	255495
#	264682
#	277320
#	290315
#	301022
#
# Disc length: 4172 seconds
#
# Revision: 9
# Processed by: cddbd v1.5.2PL0 Copyright (c) Steve Scherf et al.
# Submitted via: EZCDAudioConverter 7.2.1.1
#
DISCID=ab104a1d
DTITLE=Merle Haggard - Untamed Hawk;Disc 1 of 5
DYEAR=1995
DGENRE=Country
TTITLE0=Merle Haggard - Sing A Sad Song (1963  Tally Single)
TTITLE1=Merle Haggard - You Don't Even Try (1963  Tally Single)
TTITLE2=Merle Haggard - Life In Prison (False Start) (Recorded 1964 - Released
TTITLE2=1995)
TTITLE3=Merle Haggard - Life In Prison (Recorded 1964 - Released 1995)
TTITLE4=Merle Haggard - You Don't Have Far To Go (Recorded 1964 - Released 196
TTITLE4=5  ST 2373)
TTITLE5=Merle Haggard - Sam Hill (Recorded 1964 - Released 1995)
TTITLE6=Merle Haggard - Sam Hill (Recorded 1964 - Released 1965  ST 2373)
TTITLE7=Merle Haggard - Please Mr. D.J. (Recorded 1964 - Released 1965  ST 237
TTITLE7=3)
TTITLE8=Merle Haggard - I'd Trade All Of My Tomorrows (Recorded 1964 - Release
TTITLE8=d 1965  ST 2373)
TTITLE9=Merle Haggard - (My Friends Are Gonna Be) Strangers (Recorded 1964 - R
TTITLE9=eleased 1965  ST 2373)
TTITLE10=Merle Haggard with Bonnie Owens - Slowly But Surely (Recorded 1964 - 
TTITLE10=Released 1965  ST 2453)
TTITLE11=Merle Haggard with Bonnie Owens - Just Between The Two Of Us (Recorde
TTITLE11=d 1964 - Released 1965  ST 2453)
TTITLE12=Merle Haggard with Bonnie Owens - So Much For Me So Much For You (Rec
TTITLE12=orded 1964 - Released 1965  ST 2453)
TTITLE13=Merle Haggard - Falling For You (Recorded 1964 - Released 1965  ST 23
TTITLE13=73)
TTITLE14=Merle Haggard - I Want To Live Again (Recorded 1964 - Released 1965  
TTITLE14=ST 2453)
TTITLE15=Merle Haggard - A House Without Love Is Not A Home (Recorded 1964 - R
TTITLE15=eleased 1965  ST 2453)
TTITLE16=Merle Haggard - Walking The Floor Over You (Recorded 1964 - Released 
TTITLE16=1965  ST 2373)
TTITLE17=Merle Haggard - The Worst Is Yet To Come (Recorded 1964 - Released 19
TTITLE17=65  ST 2373)
TTITLE18=Merle Haggard - Piedras Negras (Go Home) (Recorded 1964 - Released 19
TTITLE18=95)
TTITLE19=Merle Haggard - Singin' My Heart Out (1962  Tally Single)
TTITLE20=Merle Haggard - Skid Row (1962  Tally Single)
TTITLE21=Merle Haggard - Falling For You (Without String Overdub) (Recorded 19
TTITLE21=64 - Released 1995)
TTITLE22=Merle Haggard - I'd Trade All Of My Tomorrows (Without String Overdub
TTITLE22=) (Recorded 1964 - Released 1995)
TTITLE23=Merle Haggard - If I Had Left It Up To You (1965  ST 2373)
TTITLE24=Merle Haggard - I'm Gonna Break Every Heart I Can (1965  ST 2373)
TTITLE25=Merle Haggard with Bonnie Owens - Stranger In My Arms (1965  ST 2453)
TTITLE26=Merle Haggard - If I Could Be Him (Recorded 1965 - Released 1966  ST 
TTITLE26=2585)
TTITLE27=Merle Haggard - Shade Tree (Fix-It-Man) (Recorded 1965 - Released 196
TTITLE27=6  ST 2585)
TTITLE28=Merle Haggard - This Town's Not Big Enough (Recorded 1965 - Released 
TTITLE28=1966  ST 2585)
EXTD=
EXTT0=
EXTT1=
EXTT2=
EXTT3=
EXTT4=
EXTT5=
EXTT6=
EXTT7=
EXTT8=
EXTT9=
EXTT10=
EXTT11=
EXTT12=
EXTT13=
EXTT14=
EXTT15=
EXTT16=
EXTT17=
EXTT18=
EXTT19=
EXTT20=
EXTT21=
EXTT22=
EXTT23=
EXTT24=
EXTT25=
EXTT26=
EXTT27=
EXTT28=
PLAYORDER=
